<?xml version="1.0" encoding="utf-8"?>
<!-- Generator: Adobe Illustrator 27.9.0, SVG Export Plug-In . SVG Version: 6.00 Build 0)  -->
<svg version="1.1" id="Layer_1" xmlns="http://www.w3.org/2000/svg" xmlns:xlink="http://www.w3.org/1999/xlink" x="0px" y="0px"
	 viewBox="0 0 20 20" style="enable-background:new 0 0 20 20;" xml:space="preserve">
<rect x="5" y="5" transform="matrix(-1 -1.224647e-16 1.224647e-16 -1 12 12.0003)" width="2" height="2"/>
<rect x="7" y="7" transform="matrix(-1 -1.224647e-16 1.224647e-16 -1 16 16.0003)" width="2" height="2"/>
<rect x="9" y="9" transform="matrix(-1 -1.224647e-16 1.224647e-16 -1 20 20.0048)" width="2" height="2"/>
<rect x="13" y="5" transform="matrix(-1 -1.224647e-16 1.224647e-16 -1 28 11.9951)" width="2" height="2"/>
<rect x="11" y="7" transform="matrix(-1 -1.224647e-16 1.224647e-16 -1 24 16.0003)" width="2" height="2"/>
<rect x="13" y="13" transform="matrix(-1 -1.224647e-16 1.224647e-16 -1 28.0031 27.996)" width="2" height="2"/>
<rect x="11" y="11" transform="matrix(-1 -1.224647e-16 1.224647e-16 -1 24.0031 23.996)" width="2" height="2"/>
<rect x="4.9" y="13" transform="matrix(-1 -1.224647e-16 1.224647e-16 -1 11.8992 27.9717)" width="2" height="2"/>
<rect x="6.9" y="11" transform="matrix(-1 -1.224647e-16 1.224647e-16 -1 15.8992 24.0048)" width="2" height="2"/>
</svg>
