<?xml version="1.0" encoding="UTF-8"?><svg id="Layer_1" xmlns="http://www.w3.org/2000/svg" viewBox="0 0 20 20"><defs><style>.cls-1{fill:#231f20;stroke-width:0px;}</style></defs><rect class="cls-1" x="9.02" y="5.01" width="2" height="2" transform="translate(20.03 12.03) rotate(180)"/><rect class="cls-1" x="9.02" y="12.99" width="2" height="2" transform="translate(20.03 27.97) rotate(180)"/><rect class="cls-1" x="13.99" y="8.98" width="2" height="2" transform="translate(29.97 19.97) rotate(180)"/><rect class="cls-1" x="3.95" y="8.98" width="2" height="2" transform="translate(9.9 19.97) rotate(180)"/><rect class="cls-1" x="3.01" y="9.02" width="2" height="2" transform="translate(8.03 20.03) rotate(180)"/><rect class="cls-1" x="5.01" y="9.02" width="2" height="2" transform="translate(12.03 20.03) rotate(180)"/><rect class="cls-1" x="7.01" y="9.02" width="2" height="2" transform="translate(16.03 20.03) rotate(180)"/><rect class="cls-1" x="9.02" y="9.02" width="2" height="2" transform="translate(20.03 20.03) rotate(180)"/><rect class="cls-1" x="11.02" y="9.02" width="2" height="2" transform="translate(24.03 20.03) rotate(180)"/><rect class="cls-1" x="13.02" y="9.02" width="2" height="2" transform="translate(28.03 20.03) rotate(180)"/><rect class="cls-1" x="14.99" y="9.02" width="2" height="2" transform="translate(31.97 20.03) rotate(180)"/></svg>