<?xml version="1.0" encoding="UTF-8"?><svg id="Layer_1" xmlns="http://www.w3.org/2000/svg" viewBox="0 0 20 20"><defs><style>.cls-1{fill:#231f20;stroke-width:0px;}</style></defs><rect class="cls-1" x="2.97" y="9" width="2" height="2" transform="translate(7.93 20) rotate(180)"/><rect class="cls-1" x="2" y="9" width="2" height="2" transform="translate(6 20) rotate(180)"/><rect class="cls-1" x="4" y="9" width="2" height="2" transform="translate(10 20) rotate(180)"/><rect class="cls-1" x="6" y="9" width="2" height="2" transform="translate(14 20) rotate(180)"/><rect class="cls-1" x="8" y="9" width="2" height="2" transform="translate(18 20) rotate(180)"/><rect class="cls-1" x="8" y="7" width="2" height="2" transform="translate(18 16) rotate(180)"/><rect class="cls-1" x="8" y="5" width="2" height="2" transform="translate(18 12) rotate(180)"/><rect class="cls-1" x="8" y="3" width="2" height="2" transform="translate(18 8) rotate(180)"/><rect class="cls-1" x="8" y="1" width="2" height="2" transform="translate(18 4) rotate(180)"/><rect class="cls-1" x="8" y="17" width="2" height="2" transform="translate(18 35.99) rotate(180)"/><rect class="cls-1" x="8" y="15" width="2" height="2" transform="translate(18 32) rotate(180)"/><rect class="cls-1" x="8" y="13" width="2" height="2" transform="translate(18 28) rotate(180)"/><rect class="cls-1" x="8" y="11" width="2" height="2" transform="translate(18 24) rotate(180)"/><rect class="cls-1" x="10" y="7" width="2" height="2" transform="translate(22 16) rotate(180)"/><rect class="cls-1" x="12.02" y="5" width="2" height="2" transform="translate(26.03 12) rotate(180)"/><rect class="cls-1" x="15" y="3" width="2" height="2" transform="translate(32 8) rotate(180)"/><rect class="cls-1" x="15" y="1" width="2" height="2" transform="translate(32 4) rotate(180)"/><rect class="cls-1" x="13" y="1" width="2" height="1" transform="translate(28 3) rotate(180)"/><rect class="cls-1" x="17" y="1" width="1" height="5" transform="translate(35 7) rotate(180)"/><rect class="cls-1" x="14" y="2" width="1" height="1" transform="translate(29 5) rotate(180)"/><rect class="cls-1" x="16" y="4.96" width="1" height="1" transform="translate(33 10.93) rotate(180)"/><rect class="cls-1" x="17" y="6" width="1" height="1" transform="translate(35 13) rotate(180)"/><rect class="cls-1" x="14" y="4" width="1" height="1" transform="translate(29 9) rotate(180)"/><rect class="cls-1" x="14" y="3" width="1" height="1" transform="translate(29 7) rotate(180)"/><rect class="cls-1" x="13" y="2" width="1" height="1" transform="translate(27 5) rotate(180)"/><rect class="cls-1" x="12.02" y="1" width="1" height="1" transform="translate(25.03 3) rotate(180)"/><rect class="cls-1" x="10.02" y="11" width="2" height="2" transform="translate(22.03 24) rotate(180)"/><rect class="cls-1" x="14.02" y="15" width="2" height="2" transform="translate(30.04 31.99) rotate(180)"/><rect class="cls-1" x="12.02" y="13" width="2" height="2" transform="translate(26.04 27.99) rotate(180)"/><rect class="cls-1" x="16.02" y="17" width="2" height="2" transform="translate(34.04 35.99) rotate(180)"/></svg>