<?xml version="1.0" encoding="UTF-8"?><svg id="Layer_1" xmlns="http://www.w3.org/2000/svg" viewBox="0 0 20 20"><defs><style>.cls-1{fill:#231f20;stroke-width:0px;}</style></defs><rect class="cls-1" x="9.01" y="2.96" width="2" height="2" transform="translate(6.05 13.97) rotate(-90)"/><rect class="cls-1" x="9.01" y="1.99" width="2" height="2" transform="translate(7.02 13) rotate(-90)"/><rect class="cls-1" x="9.01" y="3.99" width="2" height="2" transform="translate(5.02 15) rotate(-90)"/><rect class="cls-1" x="9.01" y="5.99" width="2" height="2" transform="translate(3.02 17) rotate(-90)"/><rect class="cls-1" x="9.01" y="7.99" width="2" height="2" transform="translate(1.02 19) rotate(-90)"/><rect class="cls-1" x="7.01" y="7.99" width="2" height="2" transform="translate(-.98 17) rotate(-90)"/><rect class="cls-1" x="5.01" y="7.99" width="2" height="2" transform="translate(-2.98 15) rotate(-90)"/><rect class="cls-1" x="3.01" y="7.99" width="2" height="2" transform="translate(-4.98 13) rotate(-90)"/><rect class="cls-1" x="1.01" y="7.99" width="2" height="2" transform="translate(-6.98 11) rotate(-90)"/><rect class="cls-1" x="17.01" y="7.99" width="2" height="2" transform="translate(9.02 27) rotate(-90)"/><rect class="cls-1" x="15.01" y="7.99" width="2" height="2" transform="translate(7.02 25) rotate(-90)"/><rect class="cls-1" x="13.01" y="7.99" width="2" height="2" transform="translate(5.02 23) rotate(-90)"/><rect class="cls-1" x="11.01" y="7.99" width="2" height="2" transform="translate(3.02 21) rotate(-90)"/><rect class="cls-1" x="7.01" y="9.99" width="2" height="2" transform="translate(-2.98 19) rotate(-90)"/><rect class="cls-1" x="5.01" y="12.01" width="2" height="2" transform="translate(-7 19.02) rotate(-90)"/><rect class="cls-1" x="3.01" y="14.99" width="2" height="2" transform="translate(-11.98 20) rotate(-90)"/><rect class="cls-1" x="1.01" y="14.99" width="2" height="2" transform="translate(-13.98 18) rotate(-90)"/><rect class="cls-1" x=".51" y="13.49" width="2" height="1" transform="translate(-12.48 15.5) rotate(-90)"/><rect class="cls-1" x="3.01" y="14.99" width="1" height="5" transform="translate(-13.98 21) rotate(-90)"/><rect class="cls-1" x="2.01" y="13.99" width="1" height="1" transform="translate(-11.98 17) rotate(-90)"/><rect class="cls-1" x="4.97" y="15.99" width="1" height="1" transform="translate(-11.01 21.96) rotate(-90)"/><rect class="cls-1" x="6.01" y="16.99" width="1" height="1" transform="translate(-10.98 24) rotate(-90)"/><rect class="cls-1" x="4.01" y="13.99" width="1" height="1" transform="translate(-9.98 19) rotate(-90)"/><rect class="cls-1" x="3.01" y="13.99" width="1" height="1" transform="translate(-10.98 18) rotate(-90)"/><rect class="cls-1" x="2.01" y="12.99" width="1" height="1" transform="translate(-10.98 16) rotate(-90)"/><rect class="cls-1" x="1.01" y="12.01" width="1" height="1" transform="translate(-11 14.02) rotate(-90)"/><rect class="cls-1" x="11.01" y="10.01" width="2" height="2" transform="translate(1.01 23.02) rotate(-90)"/><rect class="cls-1" x="15.01" y="14.01" width="2" height="2" transform="translate(1 31.01) rotate(-90)"/><rect class="cls-1" x="13.01" y="12.01" width="2" height="2" transform="translate(1 27.01) rotate(-90)"/><rect class="cls-1" x="17.01" y="16.01" width="2" height="2" transform="translate(1 35.01) rotate(-90)"/></svg>