<?xml version="1.0" encoding="UTF-8"?><svg id="Layer_1" xmlns="http://www.w3.org/2000/svg" viewBox="0 0 20 20"><defs><style>.cls-1{fill:#231f20;stroke-width:0px;}</style></defs><rect class="cls-1" x="8" width="4" height="8" transform="translate(20 8) rotate(180)"/><rect class="cls-1" x="6" y="8" width="2" height="2" transform="translate(14 18) rotate(180)"/><rect class="cls-1" x="4" y="10" width="2" height="2" transform="translate(10 22) rotate(180)"/><rect class="cls-1" x="2" y="12" width="2" height="2" transform="translate(6 26) rotate(180)"/><rect class="cls-1" y="14" width="20" height="2" transform="translate(20 30) rotate(180)"/><rect class="cls-1" x="8" y="16" width="4" height="4" transform="translate(20 36) rotate(180)"/><rect class="cls-1" x="12" y="8" width="2" height="2"/><rect class="cls-1" x="14" y="10" width="2" height="2"/><rect class="cls-1" x="16" y="12" width="2" height="2"/><rect class="cls-1" y="4" width="20" height="2" transform="translate(20 10) rotate(180)"/><rect class="cls-1" y="2" width="2" height="2" transform="translate(2 6) rotate(180)"/><rect class="cls-1" x="18" y="6" width="2" height="2" transform="translate(38 14) rotate(180)"/></svg>