<?xml version="1.0" encoding="UTF-8"?><svg id="Layer_1" xmlns="http://www.w3.org/2000/svg" viewBox="0 0 20 20"><defs><style>.cls-1{fill:#231f20;stroke-width:0px;}</style></defs><rect class="cls-1" x="14" y="6" width="4" height="8" transform="translate(26 -6) rotate(90)"/><rect class="cls-1" x="10" y="12" width="2" height="2" transform="translate(24 2) rotate(90)"/><rect class="cls-1" x="8" y="14" width="2" height="2" transform="translate(24 6) rotate(90)"/><rect class="cls-1" x="6" y="16" width="2" height="2" transform="translate(24 10) rotate(90)"/><rect class="cls-1" x="-5" y="9" width="20" height="2" transform="translate(15 5) rotate(90)"/><rect class="cls-1" x="0" y="8" width="4" height="4" transform="translate(12 8) rotate(90)"/><rect class="cls-1" x="10" y="6" width="2" height="2" transform="translate(4 18) rotate(-90)"/><rect class="cls-1" x="8" y="4" width="2" height="2" transform="translate(4 14) rotate(-90)"/><rect class="cls-1" x="6" y="2" width="2" height="2" transform="translate(4 10) rotate(-90)"/><rect class="cls-1" x="5" y="9" width="20" height="2" transform="translate(25 -5) rotate(90)"/><rect class="cls-1" x="16" y="18" width="2" height="2" transform="translate(36 2) rotate(90)"/><rect class="cls-1" x="12" y="0" width="2" height="2" transform="translate(14 -12) rotate(90)"/></svg>