<?xml version="1.0" encoding="UTF-8"?><svg id="Layer_1" xmlns="http://www.w3.org/2000/svg" viewBox="0 0 20 20"><defs><style>.cls-1{fill:#231f20;stroke-width:0px;}</style></defs><rect class="cls-1" y="0" width="2" height="4"/><rect class="cls-1" x="4" y="0" width="2" height="4"/><rect class="cls-1" x="2" y="2" width="2" height="4"/><rect class="cls-1" y="6" width="2" height="4"/><rect class="cls-1" x="2" y="10" width="2" height="4"/><rect class="cls-1" x="3" y="11" width="2" height="4" transform="translate(17 9) rotate(90)"/><rect class="cls-1" x="2" y="16.05" width="2" height="4" transform="translate(6 36.1) rotate(180)"/><rect class="cls-1" x="1" y="17" width="2" height="4" transform="translate(-17 21) rotate(-90)"/><rect class="cls-1" y="14" width="2" height="2"/><rect class="cls-1" x="6" y="14" width="2" height="2" transform="translate(-8 22) rotate(-90)"/><rect class="cls-1" x="7" y="11" width="4" height="2" transform="translate(21 3) rotate(90)"/><rect class="cls-1" x="6" y="18.05" width="2" height="2" transform="translate(-12.05 26.05) rotate(-90)"/><rect class="cls-1" x="7" y="1" width="4" height="2" transform="translate(11 -7) rotate(90)"/><rect class="cls-1" x="8" width="4" height="2"/><rect class="cls-1" x="4.5" y="5.5" width="5" height="2" transform="translate(.5 13.5) rotate(-90)"/><rect class="cls-1" x="4" y="8" width="5" height="2"/><rect class="cls-1" x="6" y="6" width="4" height="2"/><rect class="cls-1" x="10" y="4" width="6" height="2"/><rect class="cls-1" x="11.99" y="4" width="6" height="2" transform="translate(19.99 -9.99) rotate(90)"/><rect class="cls-1" x="16.2" width="4" height="2"/><rect class="cls-1" x="16" y="6" width="6" height="2" transform="translate(26 -12) rotate(90)"/><rect class="cls-1" x="16" y="8" width="4" height="2"/><rect class="cls-1" x="14" y="10" width="4" height="2"/><rect class="cls-1" x="9.99" y="8" width="4" height="2"/><rect class="cls-1" x="9" y="15" width="4" height="2" transform="translate(27 5.01) rotate(90)"/><rect class="cls-1" x="12" y="12" width="2" height="2"/><rect class="cls-1" x="17" y="13.03" width="4" height="2" transform="translate(33.03 -4.97) rotate(90)"/><rect class="cls-1" x="16" y="14.03" width="4" height="2"/><rect class="cls-1" x="13" y="17" width="4" height="2" transform="translate(33 3) rotate(90)"/><rect class="cls-1" x="12" y="18" width="4" height="2"/><rect class="cls-1" x="18" y="18.05" width="2" height="2"/></svg>