<?xml version="1.0" encoding="UTF-8"?><svg id="Layer_1" xmlns="http://www.w3.org/2000/svg" viewBox="0 0 20 20"><defs><style>.cls-1{fill:#231f20;}.cls-1,.cls-2{stroke-width:0px;}.cls-2{fill:#fff;}</style></defs><rect class="cls-1" width="20" height="20"/><rect class="cls-2" x="2" y="2" width="2" height="6"/><rect class="cls-2" x="6" y="2" width="2" height="6"/><rect class="cls-2" x="10" y="2" width="2" height="6"/><rect class="cls-2" x="14" y="1.99" width="2" height="6"/><rect class="cls-2" x="4" y="2" width="2" height="2"/><rect class="cls-2" x="12" y="1.99" width="2" height="2"/><rect class="cls-2" x="8" y="6" width="2" height="2"/><rect class="cls-2" x="16" y="6" width="2" height="2"/><rect class="cls-2" x="16" y="12" width="2" height="6" transform="translate(34 30) rotate(180)"/><rect class="cls-2" x="12" y="12" width="2" height="6" transform="translate(26 30) rotate(180)"/><rect class="cls-2" x="8" y="12" width="2" height="6" transform="translate(18 30) rotate(180)"/><rect class="cls-2" x="4" y="11.99" width="2" height="6" transform="translate(10 29.99) rotate(180)"/><rect class="cls-2" x="14" y="12" width="2" height="2" transform="translate(30 26) rotate(180)"/><rect class="cls-2" x="6" y="11.99" width="2" height="2" transform="translate(14 25.99) rotate(180)"/><rect class="cls-2" x="10" y="16" width="2" height="2" transform="translate(22 34) rotate(180)"/><rect class="cls-2" x="2" y="16" width="2" height="2" transform="translate(6 34) rotate(180)"/></svg>