<?xml version="1.0" encoding="UTF-8"?><svg id="Layer_1" xmlns="http://www.w3.org/2000/svg" viewBox="0 0 20 20"><defs><style>.cls-1,.cls-2{stroke-width:0px;}.cls-2{fill:#fff;}</style></defs><rect class="cls-1" width="20" height="20"/><rect class="cls-2" width="6" height="2"/><rect class="cls-2" x="-2" y="2" width="6" height="2" transform="translate(4 2) rotate(90)"/><rect class="cls-2" x="16" y="2" width="6" height="2" transform="translate(22 -16) rotate(90)"/><rect class="cls-2" x="14" width="6" height="2" transform="translate(34 2) rotate(180)"/><rect class="cls-2" x="14" y="18" width="6" height="2" transform="translate(34 38) rotate(180)"/><rect class="cls-2" x="16" y="16" width="6" height="2" transform="translate(2 36) rotate(-90)"/><rect class="cls-2" x="-2" y="16" width="6" height="2" transform="translate(-16 18) rotate(-90)"/><rect class="cls-2" y="18" width="6" height="2"/><rect class="cls-2" x="10" y="12" width="6" height="2" transform="translate(0 26) rotate(-90)"/><rect class="cls-2" x="4" y="6" width="6" height="2" transform="translate(0 14) rotate(-90)"/><rect class="cls-2" x="2" y="8" width="6" height="2"/><rect class="cls-2" x="4" y="6" width="2" height="2"/><rect class="cls-2" x="10" y="12" width="6" height="2" transform="translate(26) rotate(90)"/><rect class="cls-2" x="12" y="10" width="6" height="2" transform="translate(30 22) rotate(180)"/><rect class="cls-2" x="14" y="12" width="2" height="2" transform="translate(30 26) rotate(180)"/></svg>