<?xml version="1.0" encoding="utf-8"?>
<!-- Generator: Adobe Illustrator 27.9.0, SVG Export Plug-In . SVG Version: 6.00 Build 0)  -->
<svg version="1.1" id="Layer_1" xmlns="http://www.w3.org/2000/svg" xmlns:xlink="http://www.w3.org/1999/xlink" x="0px" y="0px"
	 viewBox="0 0 20 20" style="enable-background:new 0 0 20 20;" xml:space="preserve">
<style type="text/css">
	.st0{opacity:0.55;}
	.st1{fill:#FFFFFF;}
</style>
<rect x="194" y="1" width="20" height="20"/>
<rect x="194" y="-24" width="20" height="20"/>
<rect x="-31.1" y="-20" transform="matrix(-1 -1.224647e-16 1.224647e-16 -1 -60.1008 -37.9879)" width="2" height="2"/>
<rect x="-31.1" y="-10" transform="matrix(-1 -1.224647e-16 1.224647e-16 -1 -60.1008 -18.0324)" width="2" height="2"/>
<rect x="-26" y="-15" transform="matrix(-1 -1.224647e-16 1.224647e-16 -1 -50.0624 -27.9993)" width="2" height="2"/>
<rect x="-36.1" y="-15" transform="matrix(-1 -1.224647e-16 1.224647e-16 -1 -70.131 -27.9993)" width="2" height="2"/>
<rect x="5" y="-19" transform="matrix(-1 -1.224647e-16 1.224647e-16 -1 12 -36.0037)" width="2" height="2"/>
<rect x="7" y="-17" transform="matrix(-1 -1.224647e-16 1.224647e-16 -1 16 -32.0037)" width="2" height="2"/>
<rect x="9" y="-15" transform="matrix(-1 -1.224647e-16 1.224647e-16 -1 20 -27.9993)" width="2" height="2"/>
<rect x="13" y="-19" transform="matrix(-1 -1.224647e-16 1.224647e-16 -1 28 -36.009)" width="2" height="2"/>
<rect x="11" y="-17" transform="matrix(-1 -1.224647e-16 1.224647e-16 -1 24 -32.0037)" width="2" height="2"/>
<rect x="13" y="-11" transform="matrix(-1 -1.224647e-16 1.224647e-16 -1 28.0031 -20.0081)" width="2" height="2"/>
<rect x="11" y="-13" transform="matrix(-1 -1.224647e-16 1.224647e-16 -1 24.0031 -24.0081)" width="2" height="2"/>
<rect x="4.9" y="-11" transform="matrix(-1 -1.224647e-16 1.224647e-16 -1 11.8992 -20.0324)" width="2" height="2"/>
<rect x="6.9" y="-13" transform="matrix(-1 -1.224647e-16 1.224647e-16 -1 15.8992 -23.9993)" width="2" height="2"/>
<rect x="9" y="5" transform="matrix(-1 -1.224647e-16 1.224647e-16 -1 20.0342 12.0292)" width="2" height="2"/>
<rect x="9" y="13" transform="matrix(-1 -1.224647e-16 1.224647e-16 -1 20.0342 27.9708)" width="2" height="2"/>
<rect x="14" y="9" transform="matrix(-1 -1.224647e-16 1.224647e-16 -1 29.9718 19.969)" width="2" height="2"/>
<rect x="4" y="9" transform="matrix(-1 -1.224647e-16 1.224647e-16 -1 9.9032 19.969)" width="2" height="2"/>
<rect x="3" y="9" transform="matrix(-1 -1.224647e-16 1.224647e-16 -1 8.0282 20.031)" width="2" height="2"/>
<rect x="5" y="9" transform="matrix(-1 -1.224647e-16 1.224647e-16 -1 12.0282 20.031)" width="2" height="2"/>
<rect x="7" y="9" transform="matrix(-1 -1.224647e-16 1.224647e-16 -1 16.0282 20.031)" width="2" height="2"/>
<rect x="9" y="9" transform="matrix(-1 -1.224647e-16 1.224647e-16 -1 20.0342 20.031)" width="2" height="2"/>
<rect x="11" y="9" transform="matrix(-1 -1.224647e-16 1.224647e-16 -1 24.0342 20.031)" width="2" height="2"/>
<rect x="13" y="9" transform="matrix(-1 -1.224647e-16 1.224647e-16 -1 28.0342 20.031)" width="2" height="2"/>
<rect x="15" y="9" transform="matrix(-1 -1.224647e-16 1.224647e-16 -1 31.9718 20.031)" width="2" height="2"/>
<image style="overflow:visible;" width="21" height="21" xlink:href="2.png"  transform="matrix(0.9524 0 0 0.9524 33.0038 -79.8287)">
</image>
<rect x="37" y="-15" transform="matrix(-1 -1.224647e-16 1.224647e-16 -1 75.9366 -28.0041)" width="2" height="2"/>
<rect x="36" y="-15" transform="matrix(-1 -1.224647e-16 1.224647e-16 -1 73.999 -28.0041)" width="2" height="2"/>
<rect x="38" y="-15" transform="matrix(-1 -1.224647e-16 1.224647e-16 -1 77.999 -28.0041)" width="2" height="2"/>
<rect x="40" y="-15" transform="matrix(-1 -1.224647e-16 1.224647e-16 -1 81.999 -28.0041)" width="2" height="2"/>
<rect x="42" y="-15" transform="matrix(-1 -1.224647e-16 1.224647e-16 -1 86.0051 -28.0041)" width="2" height="2"/>
<rect x="42" y="-17" transform="matrix(-1 -1.224647e-16 1.224647e-16 -1 86.0051 -32.0044)" width="2" height="2"/>
<rect x="42" y="-19" transform="matrix(-1 -1.224647e-16 1.224647e-16 -1 86.0022 -36.0039)" width="2" height="2"/>
<rect x="42" y="-21" transform="matrix(-1 -1.224647e-16 1.224647e-16 -1 86.0036 -40.0068)" width="2" height="2"/>
<rect x="42" y="-23" transform="matrix(-1 -1.224647e-16 1.224647e-16 -1 86.0036 -44.0068)" width="2" height="2"/>
<rect x="42" y="-7" transform="matrix(-1 -1.224647e-16 1.224647e-16 -1 86.0022 -12.0102)" width="2" height="2"/>
<rect x="42" y="-9" transform="matrix(-1 -1.224647e-16 1.224647e-16 -1 86.0036 -16.0011)" width="2" height="2"/>
<rect x="42" y="-11" transform="matrix(-1 -1.224647e-16 1.224647e-16 -1 86.0051 -20.0041)" width="2" height="2"/>
<rect x="42" y="-13" transform="matrix(-1 -1.224647e-16 1.224647e-16 -1 86.0051 -24.0041)" width="2" height="2"/>
<rect x="44" y="-17" transform="matrix(-1 -1.224647e-16 1.224647e-16 -1 89.9989 -32.0044)" width="2" height="2"/>
<rect x="46" y="-19" transform="matrix(-1 -1.224647e-16 1.224647e-16 -1 94.0363 -36.0039)" width="2" height="2"/>
<rect x="49" y="-21" transform="matrix(-1 -1.224647e-16 1.224647e-16 -1 99.9989 -40.0068)" width="2" height="2"/>
<rect x="49" y="-23" transform="matrix(-1 -1.224647e-16 1.224647e-16 -1 99.9989 -44.0068)" width="2" height="2"/>
<rect x="47" y="-23" transform="matrix(-1 -1.224647e-16 1.224647e-16 -1 95.9989 -45.0068)" width="2" height="1"/>
<rect x="51" y="-23" transform="matrix(-1 -1.224647e-16 1.224647e-16 -1 102.9989 -41.0068)" width="1" height="5"/>
<rect x="48" y="-22" transform="matrix(-1 -1.224647e-16 1.224647e-16 -1 96.9989 -43.0068)" width="1" height="1"/>
<rect x="50" y="-19" transform="matrix(-1 -1.224647e-16 1.224647e-16 -1 100.9989 -37.0775)" width="1" height="1"/>
<rect x="51" y="-18" transform="matrix(-1 -1.224647e-16 1.224647e-16 -1 102.9989 -35.0068)" width="1" height="1"/>
<rect x="48" y="-20" transform="matrix(-1 -1.224647e-16 1.224647e-16 -1 96.9989 -39.0068)" width="1" height="1"/>
<rect x="48" y="-21" transform="matrix(-1 -1.224647e-16 1.224647e-16 -1 96.9989 -41.0068)" width="1" height="1"/>
<rect x="47" y="-22" transform="matrix(-1 -1.224647e-16 1.224647e-16 -1 94.9989 -43.0068)" width="1" height="1"/>
<rect x="46" y="-23" transform="matrix(-1 -1.224647e-16 1.224647e-16 -1 93.0363 -45.0068)" width="1" height="1"/>
<rect x="44" y="-13" transform="matrix(-1 -1.224647e-16 1.224647e-16 -1 90.0348 -24.002)" width="2" height="2"/>
<rect x="48" y="-9" transform="matrix(-1 -1.224647e-16 1.224647e-16 -1 98.0379 -16.0108)" width="2" height="2"/>
<rect x="46" y="-11" transform="matrix(-1 -1.224647e-16 1.224647e-16 -1 94.0379 -20.0108)" width="2" height="2"/>
<rect x="50" y="-7" transform="matrix(-1 -1.224647e-16 1.224647e-16 -1 102.0379 -12.0102)" width="2" height="2"/>
<g>
	<rect x="43" y="4" transform="matrix(3.267942e-07 -1 1 3.267942e-07 39.0582 48.9646)" width="2" height="2"/>
	<rect x="43" y="3" transform="matrix(3.267951e-07 -1 1 3.267951e-07 40.027 47.9958)" width="2" height="2"/>
	<rect x="43" y="5" transform="matrix(3.267942e-07 -1 1 3.267942e-07 38.027 49.9958)" width="2" height="2"/>
	<rect x="43" y="7" transform="matrix(3.267951e-07 -1 1 3.267951e-07 36.027 51.9958)" width="2" height="2"/>
	<rect x="43" y="9" transform="matrix(3.267951e-07 -1 1 3.267951e-07 34.024 53.9989)" width="2" height="2"/>
	<rect x="41" y="9" transform="matrix(3.267951e-07 -1 1 3.267951e-07 32.0238 51.9987)" width="2" height="2"/>
	<rect x="39" y="9" transform="matrix(3.267951e-07 -1 1 3.267951e-07 30.0255 49.9975)" width="2" height="2"/>
	<rect x="37" y="9" transform="matrix(3.267951e-07 -1 1 3.267951e-07 28.0233 47.9968)" width="2" height="2"/>
	<rect x="35" y="9" transform="matrix(3.267951e-07 -1 1 3.267951e-07 26.0233 45.9968)" width="2" height="2"/>
	<rect x="51" y="9" transform="matrix(3.267951e-07 -1 1 3.267951e-07 42.0223 61.9944)" width="2" height="2"/>
	<rect x="49" y="9" transform="matrix(3.267951e-07 -1 1 3.267951e-07 40.0262 59.9996)" width="2" height="2"/>
	<rect x="47" y="9" transform="matrix(3.267951e-07 -1 1 3.267951e-07 38.024 57.9989)" width="2" height="2"/>
	<rect x="45" y="9" transform="matrix(3.267951e-07 -1 1 3.267951e-07 36.024 55.9989)" width="2" height="2"/>
	<rect x="41" y="11" transform="matrix(3.267951e-07 -1 1 3.267951e-07 30.0269 53.9957)" width="2" height="2"/>
	<rect x="39" y="13" transform="matrix(3.267951e-07 -1 1 3.267951e-07 26.0085 54.0146)" width="2" height="2"/>
	<rect x="37" y="16" transform="matrix(3.267951e-07 -1 1 3.267951e-07 21.0257 54.9944)" width="2" height="2"/>
	<rect x="35" y="16" transform="matrix(3.267951e-07 -1 1 3.267951e-07 19.0257 52.9944)" width="2" height="2"/>
	<rect x="34.5" y="14.5" transform="matrix(3.267951e-07 -1 1 3.267951e-07 20.5257 50.4944)" width="2" height="1"/>
	<rect x="37" y="16" transform="matrix(3.267942e-07 -1 1 3.267942e-07 19.0257 55.9944)" width="1" height="5"/>
	<rect x="36" y="15" transform="matrix(3.267960e-07 -1 1 3.267960e-07 21.0257 51.9944)" width="1" height="1"/>
	<rect x="39" y="17" transform="matrix(3.267960e-07 -1 1 3.267960e-07 21.9903 56.9591)" width="1" height="1"/>
	<rect x="40" y="18" transform="matrix(3.267942e-07 -1 1 3.267942e-07 22.0257 58.9944)" width="1" height="1"/>
	<rect x="38" y="15" transform="matrix(3.267960e-07 -1 1 3.267960e-07 23.0257 53.9944)" width="1" height="1"/>
	<rect x="37" y="15" transform="matrix(3.267960e-07 -1 1 3.267960e-07 22.0257 52.9944)" width="1" height="1"/>
	<rect x="36" y="14" transform="matrix(3.267942e-07 -1 1 3.267942e-07 22.0257 50.9944)" width="1" height="1"/>
	<rect x="35" y="13" transform="matrix(3.267960e-07 -1 1 3.267960e-07 22.007 49.0131)" width="1" height="1"/>
	<rect x="45" y="11" transform="matrix(3.267942e-07 -1 1 3.267942e-07 34.0101 58.0148)" width="2" height="2"/>
	<rect x="49" y="15" transform="matrix(3.267942e-07 -1 1 3.267942e-07 34.0042 66.0119)" width="2" height="2"/>
	<rect x="47" y="13" transform="matrix(3.267951e-07 -1 1 3.267951e-07 34.0042 62.0119)" width="2" height="2"/>
	<rect x="51" y="17" transform="matrix(3.267951e-07 -1 1 3.267951e-07 34.0045 70.0122)" width="2" height="2"/>
</g>
<image style="overflow:visible;" width="21" height="21" xlink:href="3.png"  transform="matrix(0.9524 0 0 0.9524 74.0024 -79.8287)">
</image>
<rect x="82" y="-24" transform="matrix(-1 -1.224647e-16 1.224647e-16 -1 168.0022 -40.0041)" width="4" height="8"/>
<rect x="80" y="-16" transform="matrix(-1 -1.224647e-16 1.224647e-16 -1 162.0022 -30.0041)" width="2" height="2"/>
<rect x="78" y="-14" transform="matrix(-1 -1.224647e-16 1.224647e-16 -1 158.0022 -26.0041)" width="2" height="2"/>
<rect x="76" y="-12" transform="matrix(-1 -1.224647e-16 1.224647e-16 -1 154.0009 -22.0041)" width="2" height="2"/>
<rect x="74" y="-10" transform="matrix(-1 -1.224647e-16 1.224647e-16 -1 168.0022 -18.0041)" width="20" height="2"/>
<rect x="82" y="-8" transform="matrix(-1 -1.224647e-16 1.224647e-16 -1 168.0022 -12.0041)" width="4" height="4"/>
<rect x="86" y="-16" width="2" height="2"/>
<rect x="88" y="-14" width="2" height="2"/>
<rect x="90" y="-12" width="2" height="2"/>
<rect x="74" y="-20" transform="matrix(-1 -1.224647e-16 1.224647e-16 -1 168.0022 -38.0041)" width="20" height="2"/>
<rect x="74" y="-22" transform="matrix(-1 -1.224647e-16 1.224647e-16 -1 150.0022 -42.0041)" width="2" height="2"/>
<rect x="92" y="-18" transform="matrix(-1 -1.224647e-16 1.224647e-16 -1 186.0022 -34.0041)" width="2" height="2"/>
<image style="overflow:visible;" width="21" height="21" xlink:href="3.1.png"  transform="matrix(1 0 0 1 75.0011 48.5752)">
</image>
<rect x="88" y="6" transform="matrix(-1.836970e-16 1 -1 -1.836970e-16 100.0011 -80.0011)" width="4" height="8"/>
<rect x="84" y="12" transform="matrix(-1.836970e-16 1 -1 -1.836970e-16 98.0011 -72.0011)" width="2" height="2"/>
<rect x="82" y="14" transform="matrix(-1.836970e-16 1 -1 -1.836970e-16 98.0011 -68.0011)" width="2" height="2"/>
<rect x="80" y="16" transform="matrix(-1.836970e-16 1 -1 -1.836970e-16 98.0017 -64.0005)" width="2" height="2"/>
<rect x="69" y="9" transform="matrix(-1.836970e-16 1 -1 -1.836970e-16 89.0011 -69.0011)" width="20" height="2"/>
<rect x="74" y="8" transform="matrix(-1.836970e-16 1 -1 -1.836970e-16 86.0011 -66.0011)" width="4" height="4"/>
<rect x="84" y="6" transform="matrix(6.123234e-17 -1 1 6.123234e-17 78.0011 92.0011)" width="2" height="2"/>
<rect x="82" y="4" transform="matrix(6.123234e-17 -1 1 6.123234e-17 78.0011 88.0011)" width="2" height="2"/>
<rect x="80" y="2" transform="matrix(6.123234e-17 -1 1 6.123234e-17 78.0017 84.0005)" width="2" height="2"/>
<rect x="79" y="9" transform="matrix(-1.836970e-16 1 -1 -1.836970e-16 99.0011 -79.0011)" width="20" height="2"/>
<rect x="90" y="18" transform="matrix(-1.836970e-16 1 -1 -1.836970e-16 110.0011 -72.0011)" width="2" height="2"/>
<rect x="86" y="0" transform="matrix(-1.836970e-16 1 -1 -1.836970e-16 88.0011 -86.0011)" width="2" height="2"/>
<rect x="122" y="-24" transform="matrix(-1 -1.224647e-16 1.224647e-16 -1 248.0022 -42.2077)" width="4" height="5.8"/>
<rect x="114" y="-22" width="20" height="4"/>
<rect x="116" y="-14" width="2" height="2"/>
<rect x="114" y="-16" width="2" height="2"/>
<rect x="118" y="-16" width="2" height="2"/>
<rect x="120" y="-14" width="2" height="2"/>
<rect x="122" y="-16" width="2" height="2"/>
<rect x="124" y="-14" width="2" height="2"/>
<rect x="126" y="-16" width="2" height="2"/>
<rect x="128" y="-14" width="2" height="2"/>
<rect x="130" y="-16" width="2" height="2"/>
<rect x="132" y="-14" width="2" height="2"/>
<rect x="114" y="-10" width="20" height="2"/>
<image style="overflow:visible;" width="21" height="21" xlink:href="4.png"  transform="matrix(0.9524 0 0 0.9329 114.0019 -79.624)">
</image>
<rect x="114" y="-9" width="8" height="3"/>
<rect x="126" y="-9" width="8" height="3"/>
<rect x="114" y="-7" width="5" height="3"/>
<g class="st0">
	<defs>
		<rect id="SVGID_1_" x="114" y="1" class="st0" width="20" height="20"/>
	</defs>
	<clipPath id="SVGID_00000046334064846394022710000007175717553866877872_">
		<use xlink:href="#SVGID_1_"  style="overflow:visible;"/>
	</clipPath>
</g>
<rect x="114" y="1" width="2" height="4"/>
<rect x="118" y="1" width="2" height="4"/>
<rect x="116" y="3" width="2" height="4"/>
<rect x="114" y="7" width="2" height="4"/>
<rect x="116" y="11" width="2" height="4"/>
<rect x="117" y="12" transform="matrix(-1.836970e-16 1 -1 -1.836970e-16 132.0004 -104.0018)" width="2" height="4"/>
<rect x="116" y="17" transform="matrix(-1 -1.224647e-16 1.224647e-16 -1 234.0022 38.0889)" width="2" height="4"/>
<rect x="115" y="18" transform="matrix(6.123234e-17 -1 1 6.123234e-17 96.0047 135.9974)" width="2" height="4"/>
<rect x="114" y="15" width="2" height="2"/>
<rect x="120" y="15" transform="matrix(6.123234e-17 -1 1 6.123234e-17 105.0018 137.0004)" width="2" height="2"/>
<rect x="121" y="12" transform="matrix(-1.836970e-16 1 -1 -1.836970e-16 135.9989 -110.0033)" width="4" height="2"/>
<rect x="120" y="19" transform="matrix(6.123234e-17 -1 1 6.123234e-17 100.9566 141.0455)" width="2" height="2"/>
<rect x="121" y="2" transform="matrix(-1.836970e-16 1 -1 -1.836970e-16 125.9974 -120.0047)" width="4" height="2"/>
<rect x="122" y="1" width="4" height="2"/>
<rect x="118.5" y="6.5" transform="matrix(6.123234e-17 -1 1 6.123234e-17 113.5047 128.4974)" width="5" height="2"/>
<rect x="118" y="9" width="5" height="2"/>
<rect x="120" y="7" width="4" height="2"/>
<rect x="124" y="5" width="6" height="2"/>
<rect x="126" y="5" transform="matrix(-1.836970e-16 1 -1 -1.836970e-16 134.9892 -122.9994)" width="6" height="2"/>
<rect x="130.2" y="1" width="4" height="2"/>
<rect x="130" y="7" transform="matrix(-1.836970e-16 1 -1 -1.836970e-16 140.9974 -125.0047)" width="6" height="2"/>
<rect x="130" y="9" width="4" height="2"/>
<rect x="128" y="11" width="4" height="2"/>
<rect x="124" y="9" width="4" height="2"/>
<rect x="123" y="16" transform="matrix(-1.836970e-16 1 -1 -1.836970e-16 141.997 -107.9984)" width="4" height="2"/>
<rect x="126" y="13" width="2" height="2"/>
<rect x="131" y="14" transform="matrix(-1.836970e-16 1 -1 -1.836970e-16 148.0248 -117.9773)" width="4" height="2"/>
<rect x="130" y="15" width="4" height="2"/>
<rect x="127" y="18" transform="matrix(-1.836970e-16 1 -1 -1.836970e-16 147.9963 -110.0059)" width="4" height="2"/>
<rect x="126" y="19" width="4" height="2"/>
<rect x="132" y="19" width="2" height="2"/>
<image style="overflow:visible;" width="21" height="21" xlink:href="5.png"  transform="matrix(0.9524 0 0 0.9524 115.4977 49.0752)">
</image>
<image style="overflow:visible;" width="21" height="21" xlink:href="6.png"  transform="matrix(0.9524 0 0 0.9524 155.0012 -79.8284)">
</image>
<rect x="153" y="-24" width="20" height="20"/>
<rect x="155" y="-22" class="st1" width="2" height="6"/>
<rect x="159" y="-22" class="st1" width="2" height="6"/>
<rect x="163" y="-22" class="st1" width="2" height="6"/>
<rect x="167" y="-22" class="st1" width="2" height="6"/>
<rect x="157" y="-22" class="st1" width="2" height="2"/>
<rect x="165" y="-22" class="st1" width="2" height="2"/>
<rect x="161" y="-18" class="st1" width="2" height="2"/>
<rect x="169" y="-18" class="st1" width="2" height="2"/>
<rect x="169" y="-12" transform="matrix(-1 -1.224647e-16 1.224647e-16 -1 340.0025 -18.005)" class="st1" width="2" height="6"/>
<rect x="165" y="-12" transform="matrix(-1 -1.224647e-16 1.224647e-16 -1 331.9993 -18.005)" class="st1" width="2" height="6"/>
<rect x="161" y="-12" transform="matrix(-1 -1.224647e-16 1.224647e-16 -1 323.9993 -18.005)" class="st1" width="2" height="6"/>
<rect x="157" y="-12" transform="matrix(-1 -1.224647e-16 1.224647e-16 -1 315.9998 -18.0156)" class="st1" width="2" height="6"/>
<rect x="167" y="-12" transform="matrix(-1 -1.224647e-16 1.224647e-16 -1 336.0025 -22.005)" class="st1" width="2" height="2"/>
<rect x="159" y="-12" transform="matrix(-1 -1.224647e-16 1.224647e-16 -1 319.9993 -22.0156)" class="st1" width="2" height="2"/>
<rect x="163" y="-8" transform="matrix(-1 -1.224647e-16 1.224647e-16 -1 327.9993 -14.005)" class="st1" width="2" height="2"/>
<rect x="155" y="-8" transform="matrix(-1 -1.224647e-16 1.224647e-16 -1 311.9998 -14.005)" class="st1" width="2" height="2"/>
<g id="VnGgO3_00000029736954310821220640000012676884489575347898_">
	
		<image style="overflow:visible;" width="21" height="21" id="VnGgO3_00000176733882132055140880000017566572881342983334_" xlink:href="E17DFC880CED6AA6.jpg"  transform="matrix(0.9524 0 0 0.9524 153.5006 49.0752)">
	</image>
</g>
<rect x="153" y="1" width="20" height="20"/>
<rect x="153" y="1" class="st1" width="6" height="2"/>
<rect x="151" y="3" transform="matrix(-1.836970e-16 1 -1 -1.836970e-16 157.9969 -150.0042)" class="st1" width="6" height="2"/>
<rect x="169" y="3" transform="matrix(-1.836970e-16 1 -1 -1.836970e-16 175.9969 -168.0042)" class="st1" width="6" height="2"/>
<rect x="167" y="1" transform="matrix(-1 -1.224647e-16 1.224647e-16 -1 340.0012 3.9927)" class="st1" width="6" height="2"/>
<rect x="167" y="19" transform="matrix(-1 -1.224647e-16 1.224647e-16 -1 340.0012 39.9927)" class="st1" width="6" height="2"/>
<rect x="169" y="17" transform="matrix(6.123234e-17 -1 1 6.123234e-17 154.0042 189.9969)" class="st1" width="6" height="2"/>
<rect x="151" y="17" transform="matrix(6.123234e-17 -1 1 6.123234e-17 136.0042 171.9969)" class="st1" width="6" height="2"/>
<rect x="153" y="19" class="st1" width="6" height="2"/>
<rect x="163" y="13" transform="matrix(6.123234e-17 -1 1 6.123234e-17 152.0042 179.9969)" class="st1" width="6" height="2"/>
<rect x="157" y="7" transform="matrix(6.123234e-17 -1 1 6.123234e-17 152.0042 167.9969)" class="st1" width="6" height="2"/>
<rect x="155" y="9" class="st1" width="6" height="2"/>
<rect x="157" y="7" class="st1" width="2" height="2"/>
<rect x="163" y="13" transform="matrix(-1.836970e-16 1 -1 -1.836970e-16 179.9969 -152.0042)" class="st1" width="6" height="2"/>
<rect x="165" y="11" transform="matrix(-1 -1.224647e-16 1.224647e-16 -1 336.0012 23.9927)" class="st1" width="6" height="2"/>
<rect x="167" y="13" transform="matrix(-1 -1.224647e-16 1.224647e-16 -1 336.0012 27.9927)" class="st1" width="2" height="2"/>
<image style="overflow:visible;" width="21" height="21" xlink:href="7.png"  transform="matrix(0.9524 0 0 0.9524 192.9983 -79.8287)">
</image>
<rect x="197" y="-15" transform="matrix(-1.836970e-16 1 -1 -1.836970e-16 190.995 -218.9991)" class="st1" width="16" height="2"/>
<rect x="200" y="-18" class="st1" width="10" height="2"/>
<rect x="194" y="-16" class="st1" width="8" height="2"/>
<rect x="208" y="-16" class="st1" width="7" height="2"/>
<image style="overflow:visible;" width="21" height="21" xlink:href="6.2.png"  transform="matrix(0.9524 0 0 0.9524 194.497 49.0752)">
</image>
<rect x="194" y="1" class="st1" width="2" height="2"/>
<rect x="204" y="1" class="st1" width="2" height="2"/>
<rect x="200" y="3" class="st1" width="2" height="2"/>
<rect x="200" y="7" class="st1" width="2" height="2"/>
<rect x="204" y="7" class="st1" width="2" height="2"/>
<rect x="210" y="7" class="st1" width="2" height="2"/>
<rect x="210" y="1" class="st1" width="2" height="2"/>
<rect x="212" y="3" class="st1" width="2" height="2"/>
<rect x="212" y="11" class="st1" width="2" height="2"/>
<rect x="208" y="13" class="st1" width="2" height="2"/>
<rect x="212" y="17" class="st1" width="2" height="2"/>
<rect x="208" y="19" class="st1" width="2" height="2"/>
<rect x="204" y="19" class="st1" width="2" height="2"/>
<rect x="202" y="17" class="st1" width="2" height="2"/>
<rect x="202" y="11" class="st1" width="2" height="2"/>
<rect x="198" y="13" class="st1" width="2" height="2"/>
<rect x="198" y="19" class="st1" width="2" height="2"/>
<rect x="194" y="15" class="st1" width="2" height="2"/>
<rect x="194" y="11" class="st1" width="2" height="2"/>
<rect x="196" y="9" class="st1" width="2" height="2"/>
<rect x="233" y="-24" class="st1" width="2" height="2"/>
<rect x="251" y="-8" class="st1" width="2" height="2"/>
<rect x="247" y="-6" class="st1" width="2" height="2"/>
<rect x="243" y="-6" class="st1" width="2" height="2"/>
<rect x="241" y="-8" class="st1" width="2" height="2"/>
<rect x="237" y="-6" class="st1" width="2" height="2"/>
<rect x="233" y="-10" class="st1" width="2" height="2"/>
<rect x="233" y="-14" class="st1" width="2" height="2"/>
<rect x="233" y="-24" width="20" height="20"/>
<image style="overflow:visible;" width="21" height="21" xlink:href="1.1.png"  transform="matrix(0.9524 0 0 0.9524 -0.9829 -79.8287)">
</image>
<image style="overflow:visible;" width="21" height="21" xlink:href="1.2.png"  transform="matrix(0.9524 0 0 0.9524 1 49.0752)">
</image>
<image style="overflow:visible;" width="21" height="21" xlink:href="2.1.png"  transform="matrix(0.9524 0 0 0.9524 34.0114 49.0752)">
</image>
<image style="overflow:visible;" width="21" height="21" xlink:href="0.png"  transform="matrix(0.9524 0 0 0.9524 -40 -79.8287)">
</image>
<image style="overflow:visible;" width="21" height="21" xlink:href="8.png"  transform="matrix(0.9524 0 0 0.9524 233.0016 -79.8287)">
</image>
</svg>
